<?xml version="1.0" standalone="no"?>
<!DOCTYPE svg PUBLIC "-//W3C//DTD SVG 20010904//EN"
 "http://www.w3.org/TR/2001/REC-SVG-20010904/DTD/svg10.dtd">
<svg version="1.0" xmlns="http://www.w3.org/2000/svg"
 width="700.000000pt" height="700.000000pt" viewBox="0 0 700.000000 700.000000"
 preserveAspectRatio="xMidYMid meet">
<metadata>
Created by potrace 1.14, written by Peter Selinger 2001-2017
</metadata>
<g transform="translate(0.000000,700.000000) scale(0.100000,-0.100000)"
fill="#000000" stroke="none">
<path d="M535 5792 c-31 -7 -65 -33 -81 -63 -15 -31 -22 -244 -9 -324 20 -131
78 -253 167 -350 69 -76 140 -125 236 -165 89 -38 169 -50 333 -50 l137 0 -7
-32 c-9 -42 -6 -867 3 -968 14 -153 56 -349 106 -495 141 -411 387 -751 751
-1040 34 -27 168 -115 175 -115 4 0 15 -6 23 -14 20 -17 196 -106 276 -139 80
-33 226 -82 295 -98 30 -7 57 -14 60 -14 3 -1 26 -5 51 -9 63 -11 72 -17 61
-47 -6 -13 -13 -46 -16 -73 -4 -27 -9 -53 -11 -57 -8 -12 -8 -172 0 -229 9
-69 52 -218 71 -247 47 -72 109 -74 269 -6 66 28 163 69 215 91 52 22 196 83
320 135 124 52 281 118 350 147 229 95 276 126 335 218 15 23 36 43 46 43 11
1 22 2 27 3 4 1 30 5 57 10 267 41 580 164 825 324 30 20 57 40 58 44 2 5 10
8 17 8 7 0 15 4 17 8 2 4 32 30 68 57 88 67 264 242 344 343 208 260 349 554
422 877 41 182 34 288 -23 391 -32 56 -104 129 -155 156 -108 56 21 52 -1708
55 -2183 4 -1970 1 -2070 27 -106 28 -185 63 -265 121 -158 112 -258 255 -311
443 l-23 82 135 0 c158 0 247 17 349 66 173 82 292 225 351 419 15 48 19 94
19 227 l0 168 -37 37 -38 37 -242 1 c-213 1 -346 -8 -403 -28 -5 -2 -23 -7
-40 -12 -38 -10 -146 -63 -205 -100 -46 -29 -185 -162 -212 -203 l-15 -22 -28
39 c-25 37 -91 103 -160 160 -74 62 -254 139 -367 157 -46 7 -510 12 -543 6z"/>
<path d="M4715 5421 c-196 -56 -337 -230 -352 -433 -4 -56 -2 -73 16 -101 26
-42 61 -61 112 -61 71 1 112 47 125 139 12 94 47 148 121 192 39 22 59 27 113
27 96 0 167 -43 213 -129 21 -37 22 -58 27 -310 5 -244 7 -273 24 -302 33 -53
93 -70 154 -43 72 32 75 47 77 345 2 212 5 267 18 295 23 52 54 87 100 114
151 88 335 -10 354 -187 7 -71 42 -123 91 -136 48 -13 100 0 133 35 34 36 37
143 6 234 -89 265 -371 403 -632 311 -60 -21 -147 -75 -180 -111 -16 -18 -18
-17 -71 26 -30 24 -72 53 -92 63 -100 51 -247 64 -357 32z"/>
</g>
</svg>
