<?xml version="1.0" standalone="no"?>
<!DOCTYPE svg PUBLIC "-//W3C//DTD SVG 20010904//EN"
 "http://www.w3.org/TR/2001/REC-SVG-20010904/DTD/svg10.dtd">
<svg version="1.0" xmlns="http://www.w3.org/2000/svg"
 width="700.000000pt" height="700.000000pt" viewBox="0 0 700.000000 700.000000"
 preserveAspectRatio="xMidYMid meet">
<metadata>
Created by potrace 1.14, written by Peter Selinger 2001-2017
</metadata>
<g transform="translate(0.000000,700.000000) scale(0.100000,-0.100000)"
fill="#000000" stroke="none">
<path d="M541 5793 c-37 -7 -70 -33 -87 -64 -19 -38 -19 -279 1 -374 38 -184
178 -362 347 -444 115 -56 192 -71 368 -71 l145 0 -3 -482 c-2 -302 1 -515 8
-568 31 -249 101 -485 209 -705 290 -592 828 -1014 1475 -1160 59 -13 110 -26
112 -27 2 -2 -4 -28 -12 -58 -21 -78 -29 -271 -15 -355 19 -116 59 -221 92
-249 39 -33 84 -41 134 -23 65 24 1116 467 1170 495 72 36 119 75 154 131 l31
48 78 12 c695 108 1315 570 1618 1206 85 180 157 406 183 581 31 208 -83 391
-294 468 -21 8 -559 12 -1835 16 -1804 5 -1805 5 -1870 26 -164 54 -265 117
-379 240 -82 87 -150 213 -180 332 l-19 72 129 0 c206 0 325 33 453 124 114
81 199 197 243 330 24 74 26 95 27 253 l1 172 -30 30 c-46 49 -83 54 -350 48
-250 -5 -310 -14 -425 -59 -129 -51 -265 -152 -351 -260 l-37 -47 -18 27 c-59
91 -190 198 -315 257 -141 66 -203 77 -484 80 -137 2 -261 1 -274 -2z m589
-286 c96 -34 201 -107 257 -177 45 -57 97 -154 109 -202 l6 -28 -235 0 c-206
0 -243 2 -298 20 -158 49 -269 199 -269 363 l0 59 178 -4 c160 -4 184 -7 252
-31z m1437 -42 c-11 -144 -95 -267 -227 -329 l-65 -31 -254 -3 -254 -3 6 28
c17 87 103 216 189 284 121 96 231 127 457 128 l154 1 -6 -75z m-865 -652 c9
-8 22 -41 29 -72 18 -87 65 -210 114 -295 145 -254 375 -428 676 -508 l84 -23
1800 -5 c990 -3 1801 -6 1802 -8 1 -1 18 -16 38 -33 19 -17 35 -37 35 -43 0
-7 -27 -17 -64 -24 -177 -33 -434 -127 -611 -224 -584 -320 -988 -848 -1145
-1494 -16 -69 -28 -98 -49 -118 -17 -16 -213 -105 -537 -241 -280 -118 -515
-215 -521 -215 -19 0 -17 190 2 265 42 167 174 334 320 408 89 45 116 73 122
131 7 59 -22 108 -77 130 -54 21 -55 21 -140 -20 -103 -49 -185 -110 -268
-198 -83 -89 -79 -89 -250 -50 -360 81 -658 243 -926 503 -328 320 -521 728
-566 1197 -5 60 -10 287 -10 504 0 347 2 398 16 418 30 43 87 50 126 15z
m4552 -1290 c-17 -68 -70 -207 -119 -311 -188 -393 -529 -729 -922 -908 -151
-69 -443 -158 -460 -140 -8 7 46 152 97 263 191 411 531 756 945 958 132 65
252 111 380 145 90 24 86 25 79 -7z"/>
<path d="M4500 3618 c-76 -52 -97 -123 -58 -198 45 -88 157 -114 230 -52 60
50 74 126 36 194 -42 74 -142 101 -208 56z"/>
<path d="M2121 3503 c-42 -21 -76 -89 -66 -134 4 -17 27 -66 51 -109 146 -260
389 -489 659 -625 140 -69 185 -73 243 -21 34 32 37 39 37 89 0 73 -20 94
-155 162 -242 122 -419 288 -556 521 -77 130 -128 159 -213 117z"/>
<path d="M4733 5426 c-209 -51 -373 -256 -373 -467 0 -97 88 -161 171 -126 50
21 69 48 80 116 17 110 49 163 126 208 38 22 59 27 112 27 96 1 168 -43 214
-129 21 -37 22 -58 27 -315 4 -214 8 -280 19 -296 49 -74 177 -70 216 6 12 24
15 74 15 273 0 265 6 309 54 372 86 113 262 121 357 18 39 -42 60 -89 66 -150
8 -70 37 -114 90 -132 35 -13 46 -13 79 0 82 31 106 127 64 261 -103 334 -509
457 -781 236 l-55 -45 -43 39 c-50 43 -145 92 -211 107 -60 14 -163 12 -227
-3z"/>
</g>
</svg>
